# xmcd
#
# Track frame offsets:
#	150
#	18285
#	38512
#	64487
#	90315
#	118183
#	137376
#	166190
#	183235
#	213282
#	241046
#
# Disc length: 3609 seconds
#
# Revision: 0
# Processed by: cddbd v1.5.1PL0 Copyright (c) Steve Scherf et al.
# Submitted via: dBpowerAMP V4.0
#
DISCID=810e170b
DTITLE=A Covenant Of Thorns  - Hallowed and Hollow
DYEAR=1900
DGENRE=Gothic
TTITLE0=Love Crooked Love
TTITLE1=Empty Exorcism
TTITLE2=Tears and Roses
TTITLE3=Purgatory
TTITLE4=Forever
TTITLE5=Transparent
TTITLE6=Drive Me Home
TTITLE7=Necropolis
TTITLE8=Deep
TTITLE9=Home
TTITLE10=DATA
EXTD=
EXTT0=
EXTT1=
EXTT2=
EXTT3=
EXTT4=
EXTT5=
EXTT6=
EXTT7=
EXTT8=
EXTT9=
EXTT10=
PLAYORDER=
